<?xml version="1.0" standalone="no"?>
<!DOCTYPE svg PUBLIC "-//W3C//DTD SVG 20010904//EN"
 "http://www.w3.org/TR/2001/REC-SVG-20010904/DTD/svg10.dtd">
<svg version="1.0" xmlns="http://www.w3.org/2000/svg"
 width="320.000000pt" height="110.000000pt" viewBox="0 0 320.000000 110.000000"
 preserveAspectRatio="xMidYMid meet">
<metadata>
Created by potrace 1.13, written by Peter Selinger 2001-2015
</metadata>
<g transform="translate(0.000000,110.000000) scale(0.100000,-0.100000)"
fill="#000000" stroke="none">
<path fill = "#6ab150" d="M72 1017 c-21 -23 -22 -30 -22 -284 l0 -262 26 -20 c19 -15 41 -21
75 -21 l49 0 0 -53 c0 -51 2 -54 63 -115 60 -60 64 -62 114 -62 l51 0 4 -57
c8 -94 4 -93 312 -93 261 0 263 0 284 23 21 23 22 30 22 284 l0 262 -26 20
c-25 19 -40 21 -190 21 l-163 0 -3 171 c-3 166 -4 171 -27 190 -22 18 -42 19
-285 19 -261 0 -263 0 -284 -23z m518 -206 l0 -148 -72 -6 c-100 -7 -107 2
-58 71 22 30 40 61 40 69 0 7 11 13 25 13 23 0 25 4 25 40 l0 40 -74 0 c-65 0
-74 2 -79 20 -4 15 -14 20 -37 20 -23 0 -33 -5 -37 -20 -5 -18 -14 -20 -79
-20 l-74 0 0 -40 c0 -39 1 -40 35 -40 33 0 35 -2 25 -20 -12 -23 -10 -28 33
-83 34 -43 35 -40 -45 -83 -50 -25 -61 -51 -33 -74 19 -16 48 -8 116 33 l57
34 36 -20 c30 -17 36 -27 36 -54 l0 -32 -150 0 -150 0 0 225 0 224 230 0 230
0 0 -149z m258 -450 c34 -93 62 -171 62 -175 0 -3 -18 -6 -39 -6 -36 0 -40 3
-51 35 l-12 35 -67 0 c-67 0 -67 0 -76 -32 -9 -30 -14 -33 -54 -36 -39 -3 -43
-1 -36 15 7 19 73 190 107 281 19 51 20 52 61 52 l42 0 63 -169z"/>
<path d="M2520 1016 c-252 -56 -420 -301 -382 -555 52 -337 429 -522 733 -360
71 38 167 136 204 209 71 138 71 312 0 450 -37 73 -133 171 -204 209 -106 56
-232 73 -351 47z m27 -258 l83 -83 85 85 85 85 73 -73 72 -73 -82 -79 c-46
-44 -83 -82 -83 -85 0 -3 37 -41 83 -85 l82 -79 -72 -73 -73 -73 -85 85 -85
85 -85 -85 -85 -85 -73 73 -72 72 83 80 c45 44 82 82 82 85 0 3 -37 41 -82 85
l-83 79 70 71 c38 38 72 70 75 70 2 0 42 -37 87 -82z"/>
<path d="M1210 997 c-49 -25 -50 -34 -48 -454 l3 -392 23 -23 23 -23 409 0
409 0 23 23 c23 22 23 28 26 270 l3 247 -60 -59 -60 -60 -3 -150 -3 -151 -335
0 -335 0 0 330 0 330 151 3 150 3 59 59 59 60 -234 0 c-168 0 -242 -4 -260
-13z"/>
<path d="M1884 979 c-23 -25 -26 -33 -14 -36 8 -3 47 -38 86 -78 l72 -73 26
27 c22 23 25 33 20 62 -15 77 -48 109 -125 123 -31 5 -39 2 -65 -25z"/>
<path d="M1621 724 c-100 -97 -181 -180 -181 -185 0 -4 8 -10 19 -14 18 -5
105 -90 135 -130 14 -19 23 -12 195 160 194 193 193 190 148 245 -32 39 -107
100 -122 100 -7 0 -94 -79 -194 -176z"/>
<path d="M1377 483 c-4 -3 -7 -44 -7 -90 l0 -83 83 0 c45 0 88 4 94 8 19 12
-45 100 -100 140 -46 33 -59 37 -70 25z"/>
</g>
</svg>
