<?xml version="1.0" encoding="utf-8"?>
<!-- Generator: Adobe Illustrator 18.1.1, SVG Export Plug-In . SVG Version: 6.00 Build 0)  -->
<!DOCTYPE svg PUBLIC "-//W3C//DTD SVG 1.1//EN" "http://www.w3.org/Graphics/SVG/1.1/DTD/svg11.dtd">
<svg version="1.1" id="Layer_1" xmlns="http://www.w3.org/2000/svg" xmlns:xlink="http://www.w3.org/1999/xlink" x="0px" y="0px"
	 viewBox="-247 376.4 100 88.9" enable-background="new -247 376.4 100 88.9" xml:space="preserve">
<path fill="#FFFFFF" d="M-247,465.3v-9c0,0,0.6-5.5,7.3-7.3c0,0,10.7-3.9,19.1-7.6c4.4-1.9,5.3-3,9.7-5c0,0,0.5-2.3,0.3-3.6h3.4
	c0,0,0.8,0.5,0-4.8c0,0-4.2-1.1-4.4-9.5c0,0-3.1,1.1-3.3-4.1c-0.1-3.5-2.8-6.5,1-9l-2-5.3c0,0-3.9-21.4,7.4-18.2
	c-4.8-5.7,27-11.4,29,6.7c0,0,1.5,9.7,0,16.4c0,0,4.6-0.5,1.5,8.4c0,0-1.7,6.4-4.3,5c0,0,0.4,8.1-3.7,9.5c0,0,0.3,4.3,0.3,4.6
	l3.9,0.6c0,0-0.6,3.5,0.1,3.9c0,0,4.7,3.2,10.2,4.6c10.7,2.7,23.3,7.5,23.3,11.6c0,0,1.1,5.5,1.1,12.2
	C-147,465.3-247,465.3-247,465.3z"/>
</svg>
