<?xml version="1.0" encoding="utf-8"?>
<!-- Generator: Adobe Illustrator 18.1.1, SVG Export Plug-In . SVG Version: 6.00 Build 0)  -->
<!DOCTYPE svg PUBLIC "-//W3C//DTD SVG 1.1//EN" "http://www.w3.org/Graphics/SVG/1.1/DTD/svg11.dtd">
<svg version="1.1" id="Your_Icon" xmlns="http://www.w3.org/2000/svg" xmlns:xlink="http://www.w3.org/1999/xlink" x="0px" y="0px"
	 viewBox="-231.7 380.4 72.3 51.6" enable-background="new -231.7 380.4 72.3 51.6" xml:space="preserve">
<g>
	<path fill="#FFFFFF" d="M-197.8,400v7.2l1.2,0.9l1.2-0.9V400c0,0-0.4,0.1-1.2,0.1C-197.2,400.1-197.8,400-197.8,400z"/>
	<circle fill="#FFFFFF" cx="-196.8" cy="390.3" r="7.7"/>
	<path fill="#FFFFFF" d="M-194,399.5v7.4v0.6l-0.4,0.4l-1.2,1.3l-1,1l-1-1l-1.2-1.3l-0.4-0.4V407v-7.4c-3.4-1-6.1-3.8-6.8-7.4
		l-8.9,0.3l20.9,26.8l1.4,1.8l19.5,0.1l-19.3-22.3C-193.1,399.2-193.5,399.4-194,399.5z"/>
	<path fill="#FFFFFF" d="M-186.6,380.4l-3.3,3.1c1.7,1.7,2.8,4.1,2.8,6.8c0,3.2-1.5,6-3.9,7.8l19.4,21.8l12.2-11.1L-186.6,380.4z"/>
	<path fill="#FFFFFF" d="M-231.7,401.8l20.5,30.2c9.8-1.6,16.7-9.8,16.7-9.8l-22.3-28.5C-219.8,398.7-231.7,401.8-231.7,401.8z"/>
</g>
</svg>
