<?xml version="1.0" encoding="utf-8"?>
<!-- Generator: Adobe Illustrator 18.1.1, SVG Export Plug-In . SVG Version: 6.00 Build 0)  -->
<!DOCTYPE svg PUBLIC "-//W3C//DTD SVG 1.1//EN" "http://www.w3.org/Graphics/SVG/1.1/DTD/svg11.dtd">
<svg version="1.1" id="Layer_1" xmlns="http://www.w3.org/2000/svg" xmlns:xlink="http://www.w3.org/1999/xlink" x="0px" y="0px"
	 viewBox="-250.7 393.3 28.9 36.6" enable-background="new -250.7 393.3 28.9 36.6" xml:space="preserve">
<path fill="#FFFFFF" d="M-250.7,393.3v36.6h28.9v-36.6H-250.7z M-222.6,429.1h-27.3v-35h27.3C-222.6,394.1-222.6,429.1-222.6,429.1z
	"/>
<path fill="#FFFFFF" d="M-224.3,407.5h-24.4v14.2h24.4V407.5z M-237.8,420.9h-10.2v-1.5h10.2V420.9z M-237.8,418.6h-10.2V417h10.2
	V418.6z M-237.8,416.3h-10.2v-1.6h10.2V416.3z M-237.8,413.9h-10.2v-1.5h10.2V413.9z M-237.8,411.6h-10.2V410h10.2V411.6z
	 M-231.5,420.9h-5.5v-1.5h5.5V420.9z M-231.5,418.6h-5.5V417h5.5V418.6z M-231.5,416.3h-5.5v-1.6h5.5V416.3z M-231.5,413.9h-5.5
	v-1.5h5.5V413.9z M-231.5,411.6h-5.5V410h5.5V411.6z M-225.1,420.9h-5.6v-1.5h5.6V420.9z M-225.1,418.6h-5.6V417h5.6V418.6z
	 M-225.1,416.3h-5.6v-1.6h5.6V416.3z M-225.1,413.9h-5.6v-1.5h5.6V413.9z M-225.1,411.6h-5.6V410h5.6V411.6z"/>
<rect x="-242.4" y="396.6" fill="#FFFFFF" width="12.4" height="0.8"/>
<rect x="-248.7" y="401.4" fill="#FFFFFF" width="8.9" height="0.8"/>
<rect x="-248.7" y="404.4" fill="#FFFFFF" width="8.9" height="0.8"/>
<rect x="-248.7" y="402.9" fill="#FFFFFF" width="11" height="0.8"/>
<rect x="-229.1" y="402.9" fill="#FFFFFF" width="4.8" height="0.8"/>
<rect x="-230.7" y="401.4" fill="#FFFFFF" width="6.3" height="0.8"/>
<rect x="-230.7" y="404.4" fill="#FFFFFF" width="6.3" height="0.8"/>
<rect x="-235.3" y="424.3" fill="#FFFFFF" width="11" height="0.8"/>
<rect x="-229.8" y="425.7" fill="#FFFFFF" width="5.5" height="0.8"/>
</svg>
