<?xml version="1.0" encoding="utf-8"?>
<!-- Generator: Adobe Illustrator 18.1.1, SVG Export Plug-In . SVG Version: 6.00 Build 0)  -->
<!DOCTYPE svg PUBLIC "-//W3C//DTD SVG 1.1//EN" "http://www.w3.org/Graphics/SVG/1.1/DTD/svg11.dtd">
<svg version="1.1" id="Layer_1" xmlns="http://www.w3.org/2000/svg" xmlns:xlink="http://www.w3.org/1999/xlink" x="0px" y="0px"
	 viewBox="-227.6 373.5 66.7 63" enable-background="new -227.6 373.5 66.7 63" xml:space="preserve">
<g>
	<path fill="#FFFFFF" d="M-226.1,381.6h7.8c0.5,0.4,1.5,1.6,2.1,4.3c1,4.1,6.6,28.4,7,30.8c0.4,2.1,1.5,4.9,5.6,4.9h35.9
		c0.8,0,1.5-0.7,1.5-1.5s-0.7-1.5-1.5-1.5h-35.9c-1.7,0-2.3-0.5-2.7-2.5c0-0.2-0.2-0.8-0.3-1.6l36.3-6.8c3.2-0.6,5.5-3.5,5.4-6.7
		c0-0.8-0.7-1.6-1.5-1.6c0,0,0,0,0,0c-0.8,0-1.5,0.8-1.5,1.6c0,1.8-1.3,3.4-3,3.7l-36.4,6.9c-1.5-6.6-4.2-18.2-5.5-24.1h22.2
		c0.8,0,1.5-0.7,1.5-1.5s-0.7-1.5-1.5-1.5h-22.9c-1.3-4.4-3.4-5.6-3.7-5.8c-0.2-0.1-0.4-0.2-0.7-0.2h-8.3c-0.8,0-1.5,0.7-1.5,1.5
		S-226.9,381.6-226.1,381.6z"/>
	<path fill="#FFFFFF" d="M-173.5,373.5c-6.9,0-12.6,5.6-12.6,12.6s5.6,12.6,12.6,12.6c6.9,0,12.6-5.6,12.6-12.6
		S-166.5,373.5-173.5,373.5z M-173.5,395.7c-5.3,0-9.6-4.3-9.6-9.6s4.3-9.6,9.6-9.6c5.3,0,9.6,4.3,9.6,9.6S-168.2,395.7-173.5,395.7
		z"/>
	<path fill="#FFFFFF" d="M-168.3,384.6h-3.7v-3.7c0-0.8-0.7-1.5-1.5-1.5c-0.8,0-1.5,0.7-1.5,1.5v3.7h-3.7c-0.8,0-1.5,0.7-1.5,1.5
		s0.7,1.5,1.5,1.5h3.7v3.7c0,0.8,0.7,1.5,1.5,1.5c0.8,0,1.5-0.7,1.5-1.5v-3.7h3.7c0.8,0,1.5-0.7,1.5-1.5S-167.5,384.6-168.3,384.6z"
		/>
	<path fill="#FFFFFF" d="M-167.6,429.8c0-3.7-3-6.7-6.7-6.7s-6.7,3-6.7,6.7s3,6.7,6.7,6.7S-167.6,433.5-167.6,429.8z M-177.9,429.8
		c0-2,1.7-3.7,3.7-3.7s3.7,1.7,3.7,3.7s-1.7,3.7-3.7,3.7S-177.9,431.8-177.9,429.8z"/>
	<path fill="#FFFFFF" d="M-195.7,429.8c0-3.7-3-6.7-6.7-6.7s-6.7,3-6.7,6.7s3,6.7,6.7,6.7S-195.7,433.5-195.7,429.8z M-206.1,429.8
		c0-2,1.7-3.7,3.7-3.7s3.7,1.7,3.7,3.7s-1.7,3.7-3.7,3.7S-206.1,431.8-206.1,429.8z"/>
</g>
</svg>
